<svg xmlns="http://www.w3.org/2000/svg" viewBox="0 0 400 600">
  <path fill="#00FF4E" stroke="#009A4F" stroke-width="7" stroke-linecap="round" stroke-linejoin="round" stroke-miterlimit="10" d="M214.245 180.99s-55.014-2.295-46.419-40.129c0 0-1.113-8.259-8.595-8.909 0 0 66.731-29.27 55.014 49.038z"/>
  <path fill="#916E51" stroke="#6D4C29" stroke-width="7" stroke-miterlimit="10" d="M203.788 205.5s-2.914-40.187 33.774-45.486c19.539-2.822 13.908 17.79 5.299 19.212s-23.179 21.795-21.192 26.431-14.628-.157-14.628-.157h-3.253z"/>
  <path fill="#A52828" stroke="#8B0004" stroke-width="7" stroke-miterlimit="10" d="M162.729 199.623c-46.358-6.623-125.89 11.554-61.59 152.297 45.695 100.02 104.635 43.729 104.635 43.729s88.08 45.972 119.868-56.153-7.285-155.105-62.252-145.833-100.661 5.96-100.661 5.96z"/>
  <path fill="#770009" d="M168.568 267.151a15.24 15.24 0 01-4.479 10.815 15.34 15.34 0 01-4.861 3.277 15.265 15.265 0 01-5.953 1.201c-2.112 0-4.124-.428-5.954-1.201a15.346 15.346 0 01-8.138-8.139l14.679-5.953-14.679-5.953c.773-1.83 1.894-3.478 3.277-4.862s3.032-2.503 4.861-3.277a15.249 15.249 0 015.954-1.202 15.247 15.247 0 0110.814 4.479 15.306 15.306 0 013.277 4.862 15.23 15.23 0 011.202 5.953zM271.568 267.151a15.24 15.24 0 01-4.479 10.815 15.34 15.34 0 01-4.861 3.277 15.265 15.265 0 01-5.953 1.201c-2.112 0-4.124-.428-5.954-1.201a15.346 15.346 0 01-8.138-8.139l14.679-5.953-14.679-5.953c.773-1.83 1.894-3.478 3.277-4.862s3.032-2.503 4.861-3.277a15.249 15.249 0 015.954-1.202 15.247 15.247 0 0110.814 4.479 15.306 15.306 0 013.277 4.862 15.23 15.23 0 011.202 5.953zM222.771 311.908c-4.119-5.024-13.969-5.774-19.475-5.774-1.76 0-2.985.076-3.297.098a50.54 50.54 0 00-3.297-.098c-5.505 0-15.355.75-19.475 5.774-1.711 2.087-2.273 4.675-1.67 7.69 2.931 14.659 23.084 19.662 23.941 19.869a1.022 1.022 0 00.461.001c.878-.206 21.548-5.206 24.482-19.87.604-3.015.041-5.603-1.67-7.69zm-.287 7.299c-2.523 12.62-20.494 17.675-22.75 18.26-28.321-23.566.188-29.239.188-29.239a.977.977 0 00.153 0 46.183 46.183 0 013.221-.098c4.148 0 14.201.491 17.932 5.043 1.333 1.626 1.745 3.599 1.256 6.034zM67.602 200.147c-7.778-7.778-16.672 2.53-9.601 9.601 6.364 6.364 18.031-1.172 23.125 3.922-5.094-5.094 2.442-16.761-3.922-23.125-7.072-7.07-17.38 1.824-9.602 9.602z"/>
  <circle fill="none" stroke="#770009" stroke-width="2" stroke-miterlimit="10" cx="321.917" cy="384.917" r="5.583"/>
  <circle fill="#770009" cx="309.917" cy="399.917" r="4.017"/>
  <path fill="#770009" d="M330.331 190.291c1.533-.839 3.475-2.779 4.313-4.313l2.567-4.695c.839-1.534 2.212-1.534 3.05 0l2.568 4.695c.838 1.534 2.779 3.474 4.313 4.313l4.695 2.568c1.533.839 1.533 2.211 0 3.05l-4.695 2.567c-1.533.839-3.475 2.78-4.313 4.313l-2.568 4.696c-.838 1.533-2.211 1.534-3.049 0l-2.569-4.696c-.838-1.534-2.779-3.474-4.313-4.313l-4.695-2.567c-1.533-.839-1.533-2.211 0-3.05l4.696-2.568zM364.615 210.971c-1.33.728-3.013 2.411-3.74 3.74-.728 1.33-1.917 1.33-2.645 0s-2.41-3.013-3.74-3.74c-1.33-.727-1.33-1.917 0-2.645s3.013-2.411 3.74-3.74c.728-1.33 1.917-1.33 2.645 0s2.41 3.013 3.74 3.74c1.33.727 1.33 1.918 0 2.645zM338.539 220.044l2.83 2.83c.146-.18.301-.354.465-.519s.339-.318.52-.465l-2.83-2.83-.985.984zm13.211 2.831l2.831-2.831-.984-.984-2.83 2.831c.181.146.354.3.519.464.163.165.318.339.464.52zm-5.912-2.437c.237-.025.479-.041.723-.041.227 0 .449.012.67.034v-4.016h-1.393v4.023zm-5.961 6.643c0-.217.012-.431.032-.643h-3.953v1.392h3.966a6.635 6.635 0 01-.045-.749zm5.961 6.642v3.988h1.393v-3.981a6.623 6.623 0 01-1.393-.007zm-4.469-2.436l-2.83 2.831.984.984 2.83-2.831a6.931 6.931 0 01-.52-.465 7.372 7.372 0 01-.464-.519zm11.842-4.849c.02.212.032.426.032.643 0 .253-.017.502-.044.749h4.053v-1.392h-4.041zm-1.926 5.367a6.559 6.559 0 01-.52.465l2.831 2.831.984-.984-2.831-2.831c-.145.181-.3.355-.464.519z"/>
  <path fill="#FFF" d="M111.885 373.432c2.21-1.208 5.007-4.006 6.216-6.216l3.701-6.767c1.209-2.21 3.187-2.21 4.395 0l3.701 6.767c1.208 2.21 4.005 5.008 6.215 6.216l6.768 3.701c2.21 1.208 2.21 3.187 0 4.395l-6.768 3.701c-2.21 1.208-5.007 4.006-6.215 6.216l-3.701 6.768c-1.208 2.21-3.186 2.21-4.395 0l-3.701-6.768c-1.209-2.21-4.006-5.008-6.216-6.216l-6.768-3.701c-2.21-1.208-2.21-3.187 0-4.395l6.768-3.701zM138.864 396.544c.987-.577 2.267-1.857 2.845-2.845l1.737-2.97c.578-.987 1.473-.96 1.989.06l1.246 2.461c.517 1.02 1.774 2.277 2.794 2.794l2.46 1.245c1.02.517 1.047 1.412.06 1.989l-2.97 1.737c-.987.577-2.267 1.857-2.845 2.845l-1.737 2.97c-.578.987-1.473.96-1.989-.06l-1.246-2.461c-.517-1.02-1.774-2.277-2.794-2.794l-2.46-1.246c-1.021-.517-1.047-1.412-.06-1.989l2.97-1.736z"/>
  <path fill="#770009" d="M109.825 411.632l3.737 3.737c.193-.238.396-.469.613-.686s.447-.42.686-.613l-3.737-3.737-1.299 1.299zm9.636.519c.313-.034.631-.054.954-.054.298 0 .593.016.884.045v-5.302h-1.838v5.311zm7.807 3.218l3.738-3.737-1.3-1.299-3.737 3.737c.238.193.468.396.685.613.218.217.421.448.614.686zm-15.678 5.554c0-.287.016-.569.043-.85h-5.22v1.838h5.235a9.197 9.197 0 01-.058-.988zm17.605-.85c.027.28.043.563.043.85 0 .335-.022.663-.059.988h5.353v-1.838h-5.337zm-15.632 6.404l-3.737 3.737 1.3 1.299 3.737-3.737c-.239-.193-.469-.396-.686-.613s-.421-.448-.614-.686zm13.091.685c-.217.217-.447.42-.686.613l3.737 3.737 1.3-1.299-3.738-3.737a8.293 8.293 0 01-.613.686zm-7.193 2.53v5.267h1.838v-5.258a8.605 8.605 0 01-1.838-.009z"/>
  <path fill="none" stroke="#FFF" stroke-width="5" stroke-linecap="round" stroke-miterlimit="10" d="M106.414 219.06c-16.367 14.704-17.692 32.797-17.692 47.665"/>
  <g>
    <path d="M492.598 288.734c0 4.575-1.854 8.717-4.853 11.716-2.999 2.998-7.141 4.853-11.716 4.853s-8.717-1.854-11.716-4.853c-2.998-2.999 11.716-11.716 11.716-11.716s-14.714-8.717-11.716-11.716c2.999-2.998 7.141-4.853 11.716-4.853s8.717 1.854 11.716 4.853a16.52 16.52 0 014.853 11.716z"/>
    <path fill="none" stroke="#000" stroke-linecap="round" stroke-miterlimit="10" d="M462.973 275.892a18.14 18.14 0 012.689-2.217 18.134 18.134 0 014.754-2.286 17.878 17.878 0 013.543-.722 18.378 18.378 0 015.515.275 18.17 18.17 0 013.409 1.058 17.981 17.981 0 013.085 1.675 18.08 18.08 0 012.688 2.217 18.287 18.287 0 013.127 4.186 18.099 18.099 0 011.376 3.255 17.972 17.972 0 01.722 3.544c.063.61.094 1.23.094 1.857a18.08 18.08 0 01-.369 3.66 18.344 18.344 0 01-.447 1.741M491.784 297.391a18.035 18.035 0 01-.909 1.498"/>
    <path d="M516.438 413.843c-6.848-8.353-23.225-9.6-32.377-9.6-2.928 0-4.963.127-5.482.163a83.158 83.158 0 00-5.482-.163c-9.152 0-25.528 1.247-32.376 9.6-2.845 3.471-3.78 7.772-2.776 12.785 4.873 24.372 38.378 32.689 39.802 33.032a1.7 1.7 0 00.766.002c1.461-.342 35.826-8.655 40.703-33.034 1.001-5.013.066-9.315-2.778-12.785zm-.478 12.135c-4.197 20.981-34.072 29.384-37.822 30.357-47.084-39.18.313-48.611.313-48.611.086.006.171.006.255 0 .021-.002 2.153-.163 5.355-.163 6.896 0 23.607.817 29.812 8.386 2.214 2.701 2.898 5.983 2.087 10.031z"/>
    <path stroke="#000" stroke-linecap="round" stroke-linejoin="round" stroke-miterlimit="10" d="M478.578 90.5c0-11-13.578-10-13.578 0 0 9 13.578 11.921 13.578 19.125 0-7.204 13.578-10.125 13.578-19.125 0-10-13.578-11-13.578 0z"/>
    <circle fill="none" stroke="#000" stroke-width="1.595" stroke-linecap="round" stroke-linejoin="round" stroke-miterlimit="10" cx="483.917" cy="508.917" r="5.583"/>
    <circle cx="471.917" cy="523.917" r="4.017"/>
    <path d="M452.549 165.451c4.825-2.639 10.933-8.747 13.572-13.572l8.08-14.775c2.64-4.825 6.958-4.825 9.598 0l8.08 14.775c2.64 4.825 8.747 10.933 13.572 13.572l14.775 8.081c4.825 2.639 4.825 6.958 0 9.597l-14.775 8.081c-4.825 2.639-10.933 8.747-13.572 13.572l-8.08 14.775c-2.64 4.825-6.958 4.825-9.598 0l-8.08-14.775c-2.64-4.825-8.747-10.933-13.572-13.572l-14.775-8.081c-4.825-2.639-4.825-6.958 0-9.597l14.775-8.081z"/>
    <g>
      <path d="M543.568 289.151a15.24 15.24 0 01-4.479 10.815 15.36 15.36 0 01-4.861 3.278 15.265 15.265 0 01-5.953 1.201c-2.112 0-4.124-.428-5.954-1.201a15.332 15.332 0 01-8.138-8.14l14.679-5.953-14.679-5.953c.773-1.83 1.894-3.478 3.277-4.862s3.032-2.503 4.861-3.277a15.249 15.249 0 015.954-1.202 15.247 15.247 0 0110.814 4.479 15.306 15.306 0 013.277 4.862 15.23 15.23 0 011.202 5.953z"/>
    </g>
    <g>
      <path d="M474.644 341.815c.4-.043.806-.068 1.217-.068.381 0 .757.021 1.128.057v-6.763h-2.345v6.774zm9.958 4.105l4.767-4.768-1.657-1.657-4.767 4.767c.304.247.598.507.874.783s.535.57.783.875zm-19.998 7.084c0-.366.021-.727.055-1.084H458v2.345h6.679a11.162 11.162 0 01-.075-1.261zm-2.252-11.852l4.768 4.768c.246-.305.506-.599.782-.875.276-.277.57-.536.875-.783l-4.767-4.767-1.658 1.657zm4.766 18.936l-4.767 4.767 1.658 1.657 4.767-4.767c-.305-.247-.599-.507-.875-.783s-.536-.57-.783-.874zm19.943-8.168c.034.357.055.718.055 1.084 0 .427-.028.847-.075 1.261h6.827v-2.345h-6.807zm-3.243 9.042c-.276.276-.57.536-.874.783l4.767 4.767 1.657-1.657-4.767-4.767c-.247.304-.506.598-.783.874zm-9.174 3.228v6.718h2.345v-6.706a11.67 11.67 0 01-1.128.057c-.412 0-.817-.026-1.217-.069z"/>
    </g>
  </g>
</svg>
