<svg xmlns="http://www.w3.org/2000/svg" viewBox="0 0 400 200">
  <path fill="#00EF19" d="M79.31 64.24v75.424c0 11.684-3.214 20.175-9.64 25.473-6.427 5.297-16.231 7.947-29.416 7.947-9.498 0-17.401-2.058-23.709-6.173-6.309-4.116-9.652-9.792-10.03-17.029H28.63c.52 5.203 5.292 7.805 14.318 7.805 10.678 0 16.019-5.572 16.019-16.716V130.7l-.283-.284c-3.923 7.728-10.798 11.59-20.626 11.59-10.065 0-18.122-3.488-24.17-10.466-6.049-6.977-9.073-16.804-9.073-29.481 0-12.44 3.013-22.184 9.037-29.233 6.025-7.048 13.715-10.572 23.072-10.572 10.679 0 18.216 4.495 22.611 13.481h.283V64.24H79.31zm-53.586 39.132c0 6.491 1.417 11.703 4.253 15.636 2.835 3.933 6.78 5.898 11.837 5.898 5.575 0 9.853-1.907 12.83-5.721 2.977-3.814 4.465-9.368 4.465-16.666 0-6.773-1.595-12.246-4.785-16.416-3.189-4.168-7.407-6.254-12.652-6.254-4.678 0-8.506 1.967-11.483 5.899-2.976 3.934-4.465 9.809-4.465 17.624z"/>
  <path fill="#0CBF19" d="M172.729 102.91c0 12.63-3.627 22.575-10.88 29.836-7.254 7.262-16.717 10.892-28.388 10.892-11.482 0-20.898-3.606-28.246-10.82-7.348-7.213-11.022-17.182-11.022-29.907 0-12.818 3.674-22.799 11.022-29.942 7.347-7.142 16.763-10.714 28.246-10.714 11.766 0 21.252 3.654 28.458 10.962 7.207 7.307 10.81 17.205 10.81 29.693zm-20.909.035c0-7.39-1.524-13.169-4.572-17.338s-7.644-6.254-13.786-6.254c-5.718 0-10.207 1.955-13.467 5.862-3.26 3.909-4.891 9.818-4.891 17.729 0 7.77 1.583 13.645 4.749 17.623 3.165 3.98 7.702 5.97 13.609 5.97 6.096 0 10.679-2.061 13.751-6.182 3.071-4.121 4.607-9.923 4.607-17.41z"/>
  <path fill="#4DEF54" d="M210.296 64.24h13.185v14.545h-13.185v62.794h-20.342V78.786h-10.845V64.24h10.845v-6.244c0-7.567 1.96-13.149 5.883-16.745 3.921-3.594 10.207-5.392 18.854-5.392 2.314 0 5.103.118 8.363.354v16.604a47.794 47.794 0 00-4.607-.213c-1.938 0-3.449.13-4.536.39-1.088.26-1.891.709-2.41 1.348-.521.639-.851 1.514-.992 2.625-.142 1.112-.213 2.543-.213 4.293v2.98z"/>
  <path fill="#94F794" d="M256.227 141.58h-20.343V37.278h20.343V141.58z"/>
  <path fill="#26AA26" d="M296.415 55.087h-20.343V36.213h20.343v18.874zm0 9.153v77.34h-20.343V64.24h20.343z"/>
  <path fill="#38CE38" d="M335.684 75.451h.354c4.961-8.798 12.64-13.198 23.035-13.198 9.262 0 16.929 3.537 23.001 10.608 6.071 7.072 9.108 16.805 9.108 29.197 0 12.157-2.824 22.127-8.471 29.907-5.646 7.781-13.668 11.672-24.063 11.672-10.16 0-17.413-3.974-21.76-11.92h-.284v39.947h-20.343V64.24h19.422v11.211zm0 29.233c0 6.812 1.559 12.217 4.678 16.214s7.514 5.995 13.184 5.995c5.197 0 9.285-2.235 12.263-6.705 2.977-4.47 4.465-10.04 4.465-16.71 0-7.663-1.523-13.517-4.571-17.561s-7.29-6.066-12.724-6.066c-5.812 0-10.147 2.118-13.006 6.351-2.861 4.233-4.289 10.393-4.289 18.482z"/>
</svg>
