<?xml version="1.0" encoding="utf-8"?>
<!-- Generator: Adobe Illustrator 16.0.0, SVG Export Plug-In . SVG Version: 6.00 Build 0)  -->
<!DOCTYPE svg PUBLIC "-//W3C//DTD SVG 1.1//EN" "http://www.w3.org/Graphics/SVG/1.1/DTD/svg11.dtd">
<svg version="1.1" xmlns="http://www.w3.org/2000/svg" xmlns:xlink="http://www.w3.org/1999/xlink" x="0px" y="0px" width="400px"
	 height="200px" viewBox="0 0 400 200" enable-background="new 0 0 400 200" xml:space="preserve">
<g id="Layer_1">
	
		<image overflow="visible" width="716" height="102" xlink:href="92E509DD.jpg"  transform="matrix(0.4804 0 0 0.4804 25.0195 214.5)">
	</image>
	<text transform="matrix(1 0 0 1 399 239.5)" font-family="'MyriadPro-Regular'" font-size="12">can be found on synonym.com</text>
</g>
<g id="Layer_2">
	<g>
		<path d="M79.31,64.24v75.424c0,11.684-3.214,20.175-9.64,25.473c-6.427,5.297-16.231,7.947-29.415,7.947
			c-9.498,0-17.401-2.058-23.709-6.173c-6.309-4.116-9.652-9.792-10.03-17.029H28.63c0.52,5.203,5.292,7.805,14.318,7.805
			c10.678,0,16.019-5.572,16.019-16.716V130.7l-0.284-0.284c-3.923,7.728-10.798,11.59-20.626,11.59
			c-10.065,0-18.122-3.488-24.17-10.466c-6.049-6.977-9.073-16.804-9.073-29.481c0-12.44,3.013-22.184,9.037-29.233
			c6.025-7.048,13.715-10.572,23.072-10.572c10.679,0,18.216,4.495,22.611,13.481h0.283V64.24H79.31z M25.724,103.372
			c0,6.491,1.417,11.703,4.253,15.636c2.835,3.933,6.78,5.898,11.837,5.898c5.575,0,9.853-1.907,12.83-5.721
			c2.977-3.814,4.465-9.368,4.465-16.666c0-6.773-1.595-12.246-4.785-16.416c-3.189-4.168-7.407-6.254-12.652-6.254
			c-4.678,0-8.506,1.967-11.483,5.899C27.213,89.682,25.724,95.557,25.724,103.372z"/>
		<path d="M172.729,102.91c0,12.63-3.627,22.575-10.88,29.836c-7.254,7.262-16.717,10.892-28.388,10.892
			c-11.482,0-20.898-3.606-28.246-10.82c-7.348-7.213-11.022-17.182-11.022-29.907c0-12.818,3.674-22.799,11.022-29.942
			c7.347-7.142,16.763-10.714,28.246-10.714c11.766,0,21.252,3.654,28.458,10.962C169.126,80.524,172.729,90.422,172.729,102.91z
			 M151.82,102.945c0-7.39-1.524-13.169-4.572-17.338s-7.644-6.254-13.786-6.254c-5.718,0-10.207,1.955-13.467,5.862
			c-3.26,3.909-4.891,9.818-4.891,17.729c0,7.77,1.583,13.645,4.749,17.623c3.166,3.98,7.702,5.97,13.609,5.97
			c6.096,0,10.679-2.061,13.751-6.182C150.284,116.234,151.82,110.432,151.82,102.945z"/>
		<path d="M210.297,64.24h13.184v14.545h-13.184v62.794h-20.343V78.786h-10.845V64.24h10.845v-6.244
			c0-7.567,1.96-13.149,5.883-16.745c3.921-3.594,10.207-5.392,18.854-5.392c2.314,0,5.103,0.118,8.363,0.354v16.604
			c-1.465-0.142-3.001-0.213-4.607-0.213c-1.938,0-3.449,0.13-4.536,0.39c-1.088,0.26-1.891,0.709-2.41,1.348
			c-0.521,0.639-0.851,1.514-0.992,2.625c-0.142,1.112-0.212,2.543-0.212,4.293V64.24z"/>
		<path d="M256.227,141.58h-20.343V37.278h20.343V141.58z"/>
		<path d="M296.416,55.087h-20.343V36.213h20.343V55.087z M296.416,64.24v77.34h-20.343V64.24H296.416z"/>
		<path d="M335.684,75.451h0.354c4.961-8.798,12.64-13.198,23.036-13.198c9.261,0,16.928,3.537,23,10.608
			c6.071,7.072,9.108,16.805,9.108,29.197c0,12.157-2.824,22.127-8.471,29.907c-5.646,7.781-13.668,11.672-24.063,11.672
			c-10.16,0-17.413-3.974-21.76-11.92h-0.284v39.947h-20.343V64.24h19.422V75.451z M335.684,104.684
			c0,6.812,1.559,12.217,4.678,16.214s7.514,5.995,13.184,5.995c5.197,0,9.285-2.235,12.263-6.705
			c2.977-4.47,4.465-10.04,4.465-16.71c0-7.663-1.523-13.517-4.571-17.561s-7.29-6.066-12.723-6.066
			c-5.813,0-10.148,2.118-13.007,6.351C337.112,90.435,335.684,96.595,335.684,104.684z"/>
	</g>
	<text transform="matrix(0.999 0 0 1 222.498 -68.9199)" font-family="'HelveticaWorld-Bold'" font-size="145.3137">goflip</text>
</g>
</svg>
